<svg id="Ebene_1" data-name="Ebene 1" xmlns="http://www.w3.org/2000/svg" viewBox="0 0 315.3 146"><title>Zeichenfläche 1</title><rect x="169.3" width="145" height="145" style="fill:#fff"/><rect width="146" height="146" style="fill:#fff"/><polygon points="2.1 143.9 143.9 143.9 143.9 2.1 2.1 2.1 2.1 143.9" style="fill:#06507f"/><path d="M73,10.1A62.85,62.85,0,1,0,135.9,73,62.95,62.95,0,0,0,73,10.1Z" style="fill:#fff100"/><polygon points="69.1 74.8 58 63.7 45.2 76.5 45.2 80.8 48.4 77.5 57.3 86.5 54.1 89.8 56.2 91.9 74.1 74.1 74.1 69.8 69.1 74.8" style="fill:#bb251f"/><polygon points="17.3 61.3 37 61.3 37 65.6 33.7 65.6 33.7 79.4 45.2 73 45.2 84.7 17.3 84.7 17.3 80.4 20.6 80.4 20.6 65.6 17.3 65.6 17.3 61.3" style="fill:#06507f"/><polygon points="100.6 61.3 100.6 65.6 103.9 65.6 103.9 80.4 100.6 80.4 100.6 84.7 128.6 84.7 128.6 73 117.1 79.4 117.1 65.6 120.4 65.6 120.4 61.3 100.6 61.3" style="fill:#06507f"/><path d="M56.4,48a7,7,0,0,1,0,14,7.09,7.09,0,0,1-7-7,7,7,0,0,1,7-7Z" style="fill:#bb251f"/><path d="M73,5.9A67.1,67.1,0,1,0,140.1,73,67,67,0,0,0,73,5.9Zm0,130a62.85,62.85,0,1,1,62.9-62.8A62.93,62.93,0,0,1,73,135.9Z" style="fill:#bb251f"/><path d="M89.6,61.3H70.8v4.3h3.3V80.4H70.8v4.3H89.6C103.5,84.7,103.7,61.3,89.6,61.3Z" style="fill:#06507f"/><path d="M87,77.4H86V68.6h.8C90.9,68.6,90.9,77.4,87,77.4Z" style="fill:#ffed00"/><path d="M313.2,2.1V143.8H171.5V2.1H313.2M315.3,0h-146V146h146V0Z" style="fill:#06507f"/><path d="M193,76.6c0-5.6,4-8.6,8.2-8.6a7.48,7.48,0,0,1,3.3.6V62a.63.63,0,0,1,.7-.7h4.1a.63.63,0,0,1,.7.7V80.6h1.3a.63.63,0,0,1,.7.7v2.6a.67.67,0,0,1-.5.7,12.19,12.19,0,0,1-3.2.4c-2,0-2.7-.7-3-2H205c-.5.8-1.9,2.1-4.8,2.1C196.6,85.1,193,82.4,193,76.6Zm5.5-.1c0,2.8,1.5,3.9,3.4,3.9a4.38,4.38,0,0,0,2.6-.8V73a3.92,3.92,0,0,0-6,3.5Z" style="fill:#06507f"/><path d="M219.8,68.3a.63.63,0,0,1,.7.7V84.1a.63.63,0,0,1-.7.7h-4.1a.63.63,0,0,1-.7-.7V72.5h-1a.63.63,0,0,1-.7-.7V69.2a.66.66,0,0,1,.6-.7C216,68.3,217.9,68.3,219.8,68.3Zm-1.9-1.7a3.42,3.42,0,0,1-3.4-3.3,3.35,3.35,0,0,1,3.4-3.3,3.27,3.27,0,0,1,3.3,3.3A3.33,3.33,0,0,1,217.9,66.6Z" style="fill:#06507f"/><path d="M223.6,76.2c0-5.3,3.8-8.2,7.8-8.2a5.3,5.3,0,0,1,4,1.3h.1a2,2,0,0,1,2-1h2.4a.63.63,0,0,1,.7.7V81.7c0,6.6-3,9.9-9.4,9.9-3,0-5.4-.9-6.8-2.6-.2-.3-.3-.6,0-.9l1.9-2.5c.3-.4.6-.4,1-.1a5.21,5.21,0,0,0,3.9,1.4c3,0,4.1-1.8,4.1-3.9v-.8h-.1c-.5.7-1.6,1.9-4.5,1.9C227.1,84.2,223.6,81.7,223.6,76.2Zm5.5-.1a3.18,3.18,0,0,0,3.2,3.5,3.43,3.43,0,0,0,2.9-1.2v-5a3.67,3.67,0,0,0-2.7-.9A3.36,3.36,0,0,0,229.1,76.1Z" style="fill:#06507f"/><path d="M249.8,68.3a.63.63,0,0,1,.7.7V84.1a.63.63,0,0,1-.7.7h-4.1a.63.63,0,0,1-.7-.7V72.5h-1a.63.63,0,0,1-.7-.7V69.2a.66.66,0,0,1,.6-.7C246,68.3,247.9,68.3,249.8,68.3Zm-1.9-1.7a3.42,3.42,0,0,1-3.4-3.3,3.35,3.35,0,0,1,3.4-3.3,3.27,3.27,0,0,1,3.3,3.3A3.33,3.33,0,0,1,247.9,66.6Z" style="fill:#06507f"/><path d="M263.2,68.4a.63.63,0,0,1,.7.7v2.8a.63.63,0,0,1-.7.7h-2.5v5.7c0,1.5.6,2.2,1.9,2.2h.6c.6,0,.8.1.8.7v2.9a.75.75,0,0,1-.5.7,10.71,10.71,0,0,1-2.3.3c-4,0-5.9-1.9-5.9-6.1V72.6H254a.63.63,0,0,1-.7-.7V69a.63.63,0,0,1,.7-.7h1.2v-3a.63.63,0,0,1,.7-.7H260a.63.63,0,0,1,.7.7v3h2.5Z" style="fill:#06507f"/><path d="M273.2,68c4.5,0,6.8,2.7,6.8,7.1v5.5h1.2a.63.63,0,0,1,.7.7v2.6a.67.67,0,0,1-.5.7,10.32,10.32,0,0,1-3,.4c-2,0-2.9-.8-3.2-2H275c-.8,1.5-2.2,2.2-4.3,2.2-2.9,0-4.7-1.8-4.7-4.8,0-3.2,2.3-5,6-5a9.57,9.57,0,0,1,2.8.5V75c0-1.8-.8-2.7-2.8-2.7a5.22,5.22,0,0,0-3.1,1c-.4.3-.7.3-1-.2L266.6,71a.63.63,0,0,1,.1-.9A9.68,9.68,0,0,1,273.2,68ZM271,79.9c0,1,.6,1.6,1.8,1.6a2.37,2.37,0,0,0,2-.9V78.8a2.71,2.71,0,0,0-1.9-.6C271.7,78.3,271,78.9,271,79.9Z" style="fill:#06507f"/><path d="M288.9,61.4a.63.63,0,0,1,.7.7V80.7H291a.63.63,0,0,1,.7.7V84a.75.75,0,0,1-.5.7,8.66,8.66,0,0,1-2.7.3c-2.8,0-4.3-1.3-4.3-5.2V62a.63.63,0,0,1,.7-.7h4Z" style="fill:#06507f"/></svg>